# xmcd CD database file
#
# Track frame offsets:
#	150
#	15376
#	29674
#	43487
#	58984
#	77252
#	91426
#	111461
#	125277
#	140475
#	154670
#	170248
#	181497
#	195601
#	212794
#	233309
#
# Disc length: 3301 seconds
#
# Revision: 0
# Processed by: cddbd v1.5.1PL0 Copyright (c) Steve Scherf et al.
# Submitted via: CDex 1.50
#
DISCID=df0ce310
DTITLE=Ben Webster - Cadillac Slim
DYEAR=2004
DGENRE=Jazz
TTITLE0=Blue Serge
TTITLE1=Woke up clipped
TTITLE2=I surrender dear
TTITLE3=Linger awhile
TTITLE4=Just a riff
TTITLE5=Sleep
TTITLE6=After you're gone
TTITLE7=Cadillac Slim
TTITLE8=Cotton Tail
TTITLE9=Perdido
TTITLE10=What am I here for
TTITLE11=Rain Check
TTITLE12=Don't get around much anymore
TTITLE13=Memories of you
TTITLE14=Bounce Blues
TTITLE15=Five o'clock Drag
EXTD=YEAR: 2004
EXTT0=
EXTT1=
EXTT2=
EXTT3=
EXTT4=
EXTT5=
EXTT6=
EXTT7=
EXTT8=
EXTT9=
EXTT10=
EXTT11=
EXTT12=
EXTT13=
EXTT14=
EXTT15=
PLAYORDER=
